<svg aria-hidden="true" style="width:0;height:0;position:absolute;overflow:hidden" xmlns="http://www.w3.org/2000/svg"><defs><symbol id="icon-viber" viewBox="0 0 32 32"><path d="M14.156.063c-3.488.306-6.244 1.125-8.219 2.444-2.1 1.4-3.394 3.988-3.875 7.713-.262 2.037-.281 5.925-.031 7.781.631 4.794 2.713 7.719 6.387 8.981l.519.175v1.819c0 1.444.019 1.881.094 2.137.169.569.556.887 1.075.887.55 0 1.113-.519 2.912-2.656l1-1.181 2.412-.006c2.569-.006 3.219-.05 5.1-.375 1.006-.175 2.894-.675 3.625-.969 2.731-1.081 4.587-3.294 5.363-6.406.563-2.25.806-6.363.538-9.188-.35-3.681-1.363-6.313-3.081-7.981-1.613-1.569-4.419-2.6-8.444-3.087-.894-.113-4.45-.169-5.375-.087zm5.219 2.343c3.531.438 6.094 1.388 7.244 2.7 1.144 1.288 1.844 3.2 2.175 5.956.131 1.113.15 4.256.031 5.625-.206 2.319-.488 3.494-1.169 4.8a6.688 6.688 0 0 1-3.325 3.075c-.587.244-2.313.7-3.394.9-1.556.288-2.538.369-4.531.387l-1.875.019-.65.8c-1 1.231-3.025 3.637-3.331 3.975-.194.2-.331.294-.438.294-.331 0-.331.019-.331-3.044v-2.837l-.375-.125c-1.075-.363-2.063-.962-2.819-1.712-1.294-1.288-2.013-2.9-2.381-5.375-.162-1.087-.162-5.519 0-6.838.225-1.781.531-2.925 1.106-4.1.763-1.544 1.663-2.438 3.219-3.188 1.456-.7 3.463-1.194 5.719-1.406.894-.081 4.206-.025 5.125.094z"/><path d="M16.044 5.844c-.075.075-.106.181-.094.338.025.287.2.381.712.381.206 0 .644.044.962.1 2.231.381 4 1.662 5.019 3.631.544 1.056.819 2.125.919 3.55.056.875.1.969.438.969.256 0 .375-.175.375-.556 0-.494-.119-1.469-.262-2.125-.788-3.688-3.606-6.162-7.238-6.362-.644-.031-.738-.025-.831.075zM10.731 6.719c-.688.175-1.831 1.2-2.194 1.963-.156.338-.194.488-.194.85 0 .412.031.512.55 1.719 1 2.319 2 4.069 3.144 5.5.85 1.063 2.225 2.331 3.463 3.2 1.206.844 3.225 1.969 4.437 2.462.906.369 1.325.394 1.894.125.813-.394 1.869-1.669 2.006-2.425.075-.4-.05-.681-.481-1.1-.663-.644-1.769-1.462-2.625-1.95-.281-.156-.444-.206-.688-.206-.519-.006-.731.125-1.225.756-.45.575-.5.613-.881.706-.381.087-1.431-.331-2.338-.938-1.169-.775-2.294-2.281-2.881-3.85-.281-.738-.181-1.025.563-1.65.613-.519.75-.781.706-1.363-.019-.306-.081-.463-.387-.988-.45-.769-.794-1.256-1.425-2.044-.637-.794-.869-.912-1.444-.769z"/><path d="M16.769 7.906c-.169.119-.2.469-.056.613.05.044.331.119.625.162 2.531.35 4 1.938 4.194 4.537.044.606.131.781.387.781.075 0 .2-.056.269-.125.156-.156.169-.731.031-1.519-.381-2.2-1.844-3.787-3.975-4.319-.85-.213-1.306-.25-1.475-.131z"/><path d="M17.313 10.125a.445.445 0 0 0-.125.269c0 .262.137.363.631.45 1.044.181 1.544.713 1.675 1.781.063.488.188.688.425.688.2 0 .394-.213.394-.438 0-.344-.194-1.144-.356-1.456-.206-.419-.669-.9-1.031-1.081-.331-.169-.969-.338-1.281-.338a.49.49 0 0 0-.331.125z"/></symbol><symbol id="icon-menu" viewBox="0 0 32 32"><path d="M2 6h28v6H2zm0 8h28v6H2zm0 8h28v6H2z"/></symbol><symbol id="icon-cross" viewBox="0 0 32 32"><path d="M31.708 25.708 22 16l9.708-9.708a1 1 0 0 0 0-1.414L27.122.292a1 1 0 0 0-1.414-.001L16 9.999 6.292.291a.998.998 0 0 0-1.414.001L.292 4.878a1 1 0 0 0 0 1.414L10 16 .292 25.708a.999.999 0 0 0 0 1.414l4.586 4.586a1 1 0 0 0 1.414 0L16 22l9.708 9.708a1 1 0 0 0 1.414 0l4.586-4.586a.999.999 0 0 0 0-1.414z"/></symbol><symbol id="icon-arrow-right" viewBox="0 0 32 32"><path d="M31 16 16 1v9H0v12h16v9z"/></symbol><symbol id="icon-arrow-left" viewBox="0 0 32 32"><path d="m1 16 15 15v-9h16V10H16V1z"/></symbol><symbol id="icon-facebook" viewBox="0 0 32 32"><path d="M19 6h5V0h-5c-3.86 0-7 3.14-7 7v3H8v6h4v16h6V16h5l1-6h-6V7c0-.542.458-1 1-1z"/></symbol><symbol id="icon-telegram" viewBox="0 0 32 32"><path d="M16 0C7.162 0 0 7.162 0 16s7.162 16 16 16 16-7.163 16-16S24.837 0 16 0zm7.863 10.969-2.625 12.369c-.181.881-.712 1.087-1.45.681l-4-2.956-1.919 1.869c-.225.219-.4.4-.8.4-.519 0-.431-.194-.606-.688L11.1 18.169l-3.956-1.231c-.856-.262-.862-.85.194-1.269l15.412-5.95c.7-.319 1.381.169 1.113 1.25z"/></symbol><symbol id="icon-linkedin2" viewBox="0 0 32 32"><path d="M12 12h5.535v2.837h.079c.77-1.381 2.655-2.837 5.464-2.837C28.92 12 30 15.637 30 20.367V30h-5.769v-8.54c0-2.037-.042-4.657-3.001-4.657-3.005 0-3.463 2.218-3.463 4.509V30H12V12zM2 12h6v18H2V12zM8 7a3 3 0 1 1-6 0 3 3 0 0 1 6 0z"/></symbol><symbol id="icon-html-five2" viewBox="0 0 32 32"><path d="m1.892 0 2.567 28.801L15.983 32l11.554-3.204L30.109 0H1.893zm23.444 26.963-9.288 2.574v.015l-.024-.007-.024.007v-.015l-9.288-2.574L4.517 2.354h23.015l-2.195 24.609zm-5-10.394-.408 4.58-3.944 1.065-3.933-1.06-.252-2.82H8.252l.495 5.547 7.252 2.006 7.229-2.006.97-10.844H11.324l-.322-3.617h13.517l.316-3.532H7.141l.953 10.681z"/></symbol><symbol id="icon-github" viewBox="0 0 32 32"><path d="M16 .395c-8.836 0-16 7.163-16 16 0 7.069 4.585 13.067 10.942 15.182.8.148 1.094-.347 1.094-.77 0-.381-.015-1.642-.022-2.979-4.452.968-5.391-1.888-5.391-1.888-.728-1.849-1.776-2.341-1.776-2.341-1.452-.993.11-.973.11-.973 1.606.113 2.452 1.649 2.452 1.649 1.427 2.446 3.743 1.739 4.656 1.33.143-1.034.558-1.74 1.016-2.14-3.554-.404-7.29-1.777-7.29-7.907 0-1.747.625-3.174 1.649-4.295-.166-.403-.714-2.03.155-4.234 0 0 1.344-.43 4.401 1.64a15.353 15.353 0 0 1 4.005-.539c1.359.006 2.729.184 4.008.539 3.054-2.07 4.395-1.64 4.395-1.64.871 2.204.323 3.831.157 4.234 1.026 1.12 1.647 2.548 1.647 4.295 0 6.145-3.743 7.498-7.306 7.895.574.497 1.085 1.47 1.085 2.963 0 2.141-.019 3.864-.019 4.391 0 .426.288.925 1.099.768C27.421 29.457 32 23.462 32 16.395c0-8.837-7.164-16-16-16z"/></symbol><symbol id="icon-arrow-right" viewBox="0 0 32 32"><path d="M31 16 16 1v9H0v12h16v9z"/></symbol></defs></svg>