<svg aria-hidden="true" style="position: absolute; width: 0; height: 0; overflow: hidden;" version="1.1" xmlns="http://www.w3.org/2000/svg" xmlns:xlink="http://www.w3.org/1999/xlink">
<defs>
<symbol id="icon-viber" viewBox="0 0 32 32">
<path d="M14.156 0.063c-3.488 0.306-6.244 1.125-8.219 2.444-2.1 1.4-3.394 3.988-3.875 7.713-0.262 2.037-0.281 5.925-0.031 7.781 0.631 4.794 2.713 7.719 6.387 8.981l0.519 0.175v1.819c0 1.444 0.019 1.881 0.094 2.137 0.169 0.569 0.556 0.887 1.075 0.887 0.55 0 1.113-0.519 2.912-2.656l1-1.181 2.412-0.006c2.569-0.006 3.219-0.050 5.1-0.375 1.006-0.175 2.894-0.675 3.625-0.969 2.731-1.081 4.587-3.294 5.363-6.406 0.563-2.25 0.806-6.363 0.538-9.188-0.35-3.681-1.363-6.313-3.081-7.981-1.613-1.569-4.419-2.6-8.444-3.087-0.894-0.113-4.45-0.169-5.375-0.087zM19.375 2.406c3.531 0.438 6.094 1.388 7.244 2.7 1.144 1.288 1.844 3.2 2.175 5.956 0.131 1.113 0.15 4.256 0.031 5.625-0.206 2.319-0.488 3.494-1.169 4.8-0.719 1.381-1.913 2.488-3.325 3.075-0.587 0.244-2.313 0.7-3.394 0.9-1.556 0.288-2.538 0.369-4.531 0.387l-1.875 0.019-0.65 0.8c-1 1.231-3.025 3.637-3.331 3.975-0.194 0.2-0.331 0.294-0.438 0.294-0.331 0-0.331 0.019-0.331-3.044v-2.837l-0.375-0.125c-1.075-0.363-2.063-0.962-2.819-1.712-1.294-1.288-2.013-2.9-2.381-5.375-0.162-1.087-0.162-5.519 0-6.838 0.225-1.781 0.531-2.925 1.106-4.1 0.763-1.544 1.663-2.438 3.219-3.188 1.456-0.7 3.463-1.194 5.719-1.406 0.894-0.081 4.206-0.025 5.125 0.094z"></path>
<path d="M16.044 5.844c-0.075 0.075-0.106 0.181-0.094 0.338 0.025 0.287 0.2 0.381 0.712 0.381 0.206 0 0.644 0.044 0.962 0.1 2.231 0.381 4 1.662 5.019 3.631 0.544 1.056 0.819 2.125 0.919 3.55 0.056 0.875 0.1 0.969 0.438 0.969 0.256 0 0.375-0.175 0.375-0.556 0-0.494-0.119-1.469-0.262-2.125-0.788-3.688-3.606-6.162-7.238-6.362-0.644-0.031-0.738-0.025-0.831 0.075z"></path>
<path d="M10.731 6.719c-0.688 0.175-1.831 1.2-2.194 1.963-0.156 0.338-0.194 0.488-0.194 0.85 0 0.412 0.031 0.512 0.55 1.719 1 2.319 2 4.069 3.144 5.5 0.85 1.063 2.225 2.331 3.463 3.2 1.206 0.844 3.225 1.969 4.437 2.462 0.906 0.369 1.325 0.394 1.894 0.125 0.813-0.394 1.869-1.669 2.006-2.425 0.075-0.4-0.050-0.681-0.481-1.1-0.663-0.644-1.769-1.462-2.625-1.95-0.281-0.156-0.444-0.206-0.688-0.206-0.519-0.006-0.731 0.125-1.225 0.756-0.45 0.575-0.5 0.613-0.881 0.706-0.381 0.087-1.431-0.331-2.338-0.938-1.169-0.775-2.294-2.281-2.881-3.85-0.281-0.738-0.181-1.025 0.563-1.65 0.613-0.519 0.75-0.781 0.706-1.363-0.019-0.306-0.081-0.463-0.387-0.988-0.45-0.769-0.794-1.256-1.425-2.044-0.637-0.794-0.869-0.912-1.444-0.769z"></path>
<path d="M16.769 7.906c-0.169 0.119-0.2 0.469-0.056 0.613 0.050 0.044 0.331 0.119 0.625 0.162 2.531 0.35 4 1.938 4.194 4.537 0.044 0.606 0.131 0.781 0.387 0.781 0.075 0 0.2-0.056 0.269-0.125 0.156-0.156 0.169-0.731 0.031-1.519-0.381-2.2-1.844-3.787-3.975-4.319-0.85-0.213-1.306-0.25-1.475-0.131z"></path>
<path d="M17.313 10.125c-0.069 0.069-0.125 0.188-0.125 0.269 0 0.262 0.137 0.363 0.631 0.45 1.044 0.181 1.544 0.713 1.675 1.781 0.063 0.488 0.188 0.688 0.425 0.688 0.2 0 0.394-0.213 0.394-0.438 0-0.344-0.194-1.144-0.356-1.456-0.206-0.419-0.669-0.9-1.031-1.081-0.331-0.169-0.969-0.338-1.281-0.338-0.125 0-0.256 0.050-0.331 0.125z"></path>
</symbol>
<symbol id="icon-menu" viewBox="0 0 32 32">
<path d="M2 6h28v6h-28zM2 14h28v6h-28zM2 22h28v6h-28z"></path>
</symbol>
<symbol id="icon-cross" viewBox="0 0 32 32">
<path d="M31.708 25.708c-0-0-0-0-0-0l-9.708-9.708 9.708-9.708c0-0 0-0 0-0 0.105-0.105 0.18-0.227 0.229-0.357 0.133-0.356 0.057-0.771-0.229-1.057l-4.586-4.586c-0.286-0.286-0.702-0.361-1.057-0.229-0.13 0.048-0.252 0.124-0.357 0.228 0 0-0 0-0 0l-9.708 9.708-9.708-9.708c-0-0-0-0-0-0-0.105-0.104-0.227-0.18-0.357-0.228-0.356-0.133-0.771-0.057-1.057 0.229l-4.586 4.586c-0.286 0.286-0.361 0.702-0.229 1.057 0.049 0.13 0.124 0.252 0.229 0.357 0 0 0 0 0 0l9.708 9.708-9.708 9.708c-0 0-0 0-0 0-0.104 0.105-0.18 0.227-0.229 0.357-0.133 0.355-0.057 0.771 0.229 1.057l4.586 4.586c0.286 0.286 0.702 0.361 1.057 0.229 0.13-0.049 0.252-0.124 0.357-0.229 0-0 0-0 0-0l9.708-9.708 9.708 9.708c0 0 0 0 0 0 0.105 0.105 0.227 0.18 0.357 0.229 0.356 0.133 0.771 0.057 1.057-0.229l4.586-4.586c0.286-0.286 0.362-0.702 0.229-1.057-0.049-0.13-0.124-0.252-0.229-0.357z"></path>
</symbol>
<symbol id="icon-arrow-right" viewBox="0 0 32 32">
<path d="M31 16l-15-15v9h-16v12h16v9z"></path>
</symbol>
<symbol id="icon-arrow-left" viewBox="0 0 32 32">
<path d="M1 16l15 15v-9h16v-12h-16v-9z"></path>
</symbol>
<symbol id="icon-facebook" viewBox="0 0 32 32">
<path d="M19 6h5v-6h-5c-3.86 0-7 3.14-7 7v3h-4v6h4v16h6v-16h5l1-6h-6v-3c0-0.542 0.458-1 1-1z"></path>
</symbol>
<symbol id="icon-telegram" viewBox="0 0 32 32">
<path d="M16 0c-8.838 0-16 7.162-16 16s7.162 16 16 16 16-7.163 16-16-7.163-16-16-16zM23.863 10.969l-2.625 12.369c-0.181 0.881-0.712 1.087-1.45 0.681l-4-2.956-1.919 1.869c-0.225 0.219-0.4 0.4-0.8 0.4-0.519 0-0.431-0.194-0.606-0.688l-1.363-4.475-3.956-1.231c-0.856-0.262-0.862-0.85 0.194-1.269l15.412-5.95c0.7-0.319 1.381 0.169 1.113 1.25z"></path>
</symbol>
<symbol id="icon-linkedin2" viewBox="0 0 32 32">
<path d="M12 12h5.535v2.837h0.079c0.77-1.381 2.655-2.837 5.464-2.837 5.842 0 6.922 3.637 6.922 8.367v9.633h-5.769v-8.54c0-2.037-0.042-4.657-3.001-4.657-3.005 0-3.463 2.218-3.463 4.509v8.688h-5.767v-18z"></path>
<path d="M2 12h6v18h-6v-18z"></path>
<path d="M8 7c0 1.657-1.343 3-3 3s-3-1.343-3-3c0-1.657 1.343-3 3-3s3 1.343 3 3z"></path>
</symbol>
<symbol id="icon-html-five2" viewBox="0 0 32 32">
<path d="M1.892 0l2.567 28.801 11.524 3.199 11.554-3.204 2.572-28.796h-28.216zM25.336 26.963l-9.288 2.574v0.015l-0.024-0.007-0.024 0.007v-0.015l-9.288-2.574-2.195-24.609h23.015l-2.195 24.609zM20.336 16.569l-0.408 4.58-3.944 1.065-3.933-1.060-0.252-2.82h-3.547l0.495 5.547 7.252 2.006 7.229-2.006 0.97-10.844h-12.874l-0.322-3.617h13.517l0.316-3.532h-17.694l0.953 10.681z"></path>
</symbol>
</defs>
</svg>
